<svg width="48" height="48" viewBox="0 0 48 48" fill="none" xmlns="http://www.w3.org/2000/svg">
<path d="M41.4506 27.0769C40.3368 22.7452 37.661 18.9781 33.9375 16.5H45C45.3978 16.5 45.7794 16.342 46.0607 16.0607C46.342 15.7794 46.5 15.3979 46.5 15C46.5 14.6022 46.342 14.2207 46.0607 13.9394C45.7794 13.6581 45.3978 13.5 45 13.5H29.8125C29.4821 12.2094 28.7315 11.0655 27.679 10.2486C26.6266 9.43168 25.3323 8.98828 24 8.98828C22.6677 8.98828 21.3734 9.43168 20.321 10.2486C19.2686 11.0655 18.518 12.2094 18.1875 13.5H3C2.60218 13.5 2.22065 13.6581 1.93934 13.9394C1.65804 14.2207 1.5 14.6022 1.5 15C1.5 15.3979 1.65804 15.7794 1.93934 16.0607C2.22065 16.342 2.60218 16.5 3 16.5H14.0625C10.3391 18.9781 7.66316 22.7452 6.54938 27.0769C5.10914 27.3067 3.80191 28.0533 2.87213 29.1769C1.94235 30.3006 1.45368 31.7244 1.49749 33.1822C1.54131 34.64 2.1146 36.0319 3.11019 37.0977C4.10577 38.1635 5.45547 38.8302 6.90691 38.9731C8.35835 39.116 9.81215 38.7253 10.9965 37.8742C12.1808 37.023 13.0145 35.7696 13.3418 34.3483C13.669 32.927 13.4674 31.4352 12.7746 30.1518C12.0818 28.8684 10.9453 27.8813 9.5775 27.375C10.2215 25.1545 11.3664 23.1114 12.9241 21.4028C14.4818 19.6943 16.4108 18.366 18.5625 17.52C19.0439 18.5581 19.8121 19.4369 20.7766 20.0527C21.741 20.6685 22.8614 20.9957 24.0056 20.9957C25.1499 20.9957 26.2703 20.6685 27.2347 20.0527C28.1991 19.4369 28.9673 18.5581 29.4488 17.52C31.5984 18.3674 33.5251 19.6964 35.0808 21.4048C36.6364 23.1133 37.7796 25.1557 38.4225 27.375C37.0541 27.8796 35.9163 28.8653 35.2219 30.1479C34.5275 31.4304 34.324 32.922 34.6495 34.3437C34.975 35.7654 35.8072 37.0198 36.9904 37.8724C38.1737 38.7251 39.6271 39.1176 41.0787 38.9764C42.5303 38.8353 43.8808 38.1703 44.8777 37.1057C45.8746 36.0411 46.4496 34.6499 46.4952 33.1921C46.5408 31.7343 46.0538 30.3099 45.1254 29.1851C44.197 28.0603 42.8906 27.3122 41.4506 27.0807V27.0769ZM10.5 33C10.5 33.5934 10.3241 34.1734 9.99441 34.6668C9.66477 35.1601 9.19623 35.5446 8.64805 35.7717C8.09988 35.9987 7.49668 36.0582 6.91473 35.9424C6.33279 35.8266 5.79824 35.5409 5.37868 35.1214C4.95913 34.7018 4.6734 34.1673 4.55765 33.5853C4.44189 33.0034 4.5013 32.4002 4.72836 31.852C4.95543 31.3038 5.33995 30.8353 5.83329 30.5056C6.32664 30.176 6.90666 30 7.5 30C8.29565 30 9.05871 30.3161 9.62132 30.8787C10.1839 31.4413 10.5 32.2044 10.5 33ZM24 18C23.4067 18 22.8266 17.8241 22.3333 17.4945C21.8399 17.1648 21.4554 16.6963 21.2284 16.1481C21.0013 15.5999 20.9419 14.9967 21.0576 14.4148C21.1734 13.8328 21.4591 13.2983 21.8787 12.8787C22.2982 12.4592 22.8328 12.1734 23.4147 12.0577C23.9967 11.9419 24.5999 12.0013 25.1481 12.2284C25.6962 12.4555 26.1648 12.84 26.4944 13.3333C26.8241 13.8267 27 14.4067 27 15C27 15.7957 26.6839 16.5588 26.1213 17.1214C25.5587 17.684 24.7957 18 24 18ZM40.5 36C39.9067 36 39.3266 35.8241 38.8333 35.4945C38.3399 35.1648 37.9554 34.6963 37.7284 34.1481C37.5013 33.5999 37.4419 32.9967 37.5576 32.4148C37.6734 31.8328 37.9591 31.2983 38.3787 30.8787C38.7982 30.4592 39.3328 30.1734 39.9147 30.0577C40.4967 29.9419 41.0999 30.0013 41.6481 30.2284C42.1962 30.4555 42.6648 30.84 42.9944 31.3333C43.3241 31.8267 43.5 32.4067 43.5 33C43.5 33.7957 43.1839 34.5588 42.6213 35.1214C42.0587 35.684 41.2957 36 40.5 36Z" fill="#42EB85"/>
</svg>
