<svg width="40" height="39" viewBox="0 0 40 39" fill="none" xmlns="http://www.w3.org/2000/svg">
<path d="M38 36H34.2388C36.1455 33.6829 37.3847 30.8899 37.823 27.9213C38.2614 24.9526 37.8823 21.9207 36.7266 19.1514C35.5709 16.382 33.6823 13.9801 31.2637 12.2037C28.8452 10.4273 25.9882 9.3437 23 9.06938V3C23 2.20435 22.6839 1.44129 22.1213 0.87868C21.5587 0.31607 20.7956 0 20 0H11C10.2044 0 9.44129 0.31607 8.87868 0.87868C8.31607 1.44129 8 2.20435 8 3V22.5C8 23.2956 8.31607 24.0587 8.87868 24.6213C9.44129 25.1839 10.2044 25.5 11 25.5H20C20.7956 25.5 21.5587 25.1839 22.1213 24.6213C22.6839 24.0587 23 23.2956 23 22.5V12.0863C25.6464 12.3829 28.146 13.4555 30.1842 15.1693C32.2225 16.883 33.7084 19.1613 34.4549 21.7175C35.2015 24.2737 35.1754 26.9935 34.3799 29.5349C33.5845 32.0763 32.0551 34.3257 29.9844 36H2C1.60218 36 1.22064 36.158 0.93934 36.4393C0.658035 36.7206 0.5 37.1022 0.5 37.5C0.5 37.8978 0.658035 38.2794 0.93934 38.5607C1.22064 38.842 1.60218 39 2 39H38C38.3978 39 38.7794 38.842 39.0607 38.5607C39.342 38.2794 39.5 37.8978 39.5 37.5C39.5 37.1022 39.342 36.7206 39.0607 36.4393C38.7794 36.158 38.3978 36 38 36ZM20 22.5H11V3H20V22.5ZM9.5 31.5C9.10218 31.5 8.72064 31.342 8.43934 31.0607C8.15804 30.7794 8 30.3978 8 30C8 29.6022 8.15804 29.2206 8.43934 28.9393C8.72064 28.658 9.10218 28.5 9.5 28.5H21.5C21.8978 28.5 22.2794 28.658 22.5607 28.9393C22.842 29.2206 23 29.6022 23 30C23 30.3978 22.842 30.7794 22.5607 31.0607C22.2794 31.342 21.8978 31.5 21.5 31.5H9.5Z" fill="#42EB85"/>
</svg>
