<svg xmlns="http://www.w3.org/2000/svg" width="32" height="32" viewBox="0 0 32 32" fill="none">
  <path d="M16 2.66669C13.3629 2.66669 10.7851 3.44867 8.59242 4.91376C6.39977 6.37884 4.6908 8.46123 3.68163 10.8976C2.67246 13.3339 2.40842 16.0148 2.92289 18.6012C3.43736 21.1876 4.70724 23.5634 6.57194 25.4281C8.43664 27.2928 10.8124 28.5627 13.3988 29.0772C15.9852 29.5916 18.6661 29.3276 21.1025 28.3184C23.5388 27.3092 25.6212 25.6003 27.0863 23.4076C28.5514 21.215 29.3334 18.6371 29.3334 16C28.4067 16.2854 27.4198 16.3127 26.4788 16.079C25.5378 15.8454 24.6782 15.3597 23.9926 14.6741C23.307 13.9885 22.8213 13.129 22.5877 12.1879C22.354 11.2469 22.3814 10.26 22.6667 9.33335C21.74 9.61868 20.7531 9.64601 19.8121 9.41238C18.8711 9.17876 18.0116 8.69302 17.326 8.00742C16.6404 7.32182 16.1546 6.46229 15.921 5.52127C15.6874 4.58025 15.7147 3.59334 16 2.66669Z" stroke="#42EB85" stroke-width="2" stroke-linecap="round" stroke-linejoin="round"/>
  <path d="M11.3333 11.3333V11.3466" stroke="#42EB85" stroke-width="2" stroke-linecap="round" stroke-linejoin="round"/>
  <path d="M21.3333 20.6667V20.68" stroke="#42EB85" stroke-width="2" stroke-linecap="round" stroke-linejoin="round"/>
  <path d="M16 16V16.0133" stroke="#42EB85" stroke-width="2" stroke-linecap="round" stroke-linejoin="round"/>
  <path d="M14.6667 22.6667V22.68" stroke="#42EB85" stroke-width="2" stroke-linecap="round" stroke-linejoin="round"/>
  <path d="M9.33331 18.6667V18.68" stroke="#42EB85" stroke-width="2" stroke-linecap="round" stroke-linejoin="round"/>
</svg>
