<svg width="24" height="24" viewBox="0 0 24 24" fill="none" xmlns="http://www.w3.org/2000/svg">
<path d="M6.70407 12.7959L14.2041 20.2959C14.4154 20.5072 14.7021 20.626 15.0009 20.626C15.2998 20.626 15.5865 20.5072 15.7978 20.2959C16.0092 20.0845 16.1279 19.7979 16.1279 19.499C16.1279 19.2001 16.0092 18.9135 15.7978 18.7021L9.09376 12L15.7959 5.2959C15.9006 5.19125 15.9836 5.06702 16.0402 4.93029C16.0969 4.79356 16.126 4.64701 16.126 4.49902C16.126 4.35103 16.0969 4.20448 16.0402 4.06776C15.9836 3.93103 15.9006 3.80679 15.7959 3.70215C15.6913 3.5975 15.5671 3.51449 15.4303 3.45785C15.2936 3.40122 15.1471 3.37207 14.9991 3.37207C14.8511 3.37207 14.7045 3.40122 14.5678 3.45785C14.4311 3.51449 14.3068 3.5975 14.2022 3.70215L6.7022 11.2021C6.59744 11.3068 6.51437 11.4311 6.45775 11.5679C6.40113 11.7047 6.37207 11.8513 6.37225 11.9994C6.37242 12.1475 6.40182 12.294 6.45877 12.4307C6.51571 12.5674 6.59907 12.6915 6.70407 12.7959Z" fill="#064720"/>
</svg>
