
<svg xmlns="http://www.w3.org/2000/svg" width="288" height="240" viewBox="0 0 288 240" fill="none">
  <path d="M265.78 33.533L148.208 33.533L109.684 4.47107C105.832 1.57962 101.158 0.0119928 96.3524 0H22.2198C16.3267 0 10.675 2.35529 6.50802 6.54773C2.341 10.7402 0 16.4263 0 22.3554V217.645C0 223.574 2.341 229.26 6.50802 233.452C10.675 237.645 16.3267 240 22.2198 240L267.016 240C272.579 239.993 277.912 237.766 281.846 233.808C285.779 229.851 287.993 224.485 288 218.888V55.8884C288 49.9594 285.659 44.2732 281.492 40.0808C277.325 35.8883 271.673 33.533 265.78 33.533Z" fill="url(#paint0_linear_1070_1346)"/>
  <defs>
    <linearGradient id="paint0_linear_1070_1346" x1="144.5" y1="0.0843811" x2="144.5" y2="234.816" gradientUnits="userSpaceOnUse">
      <stop stop-color="#42EB85"/>
      <stop offset="0.499755" stop-color="#34B84A"/>
    </linearGradient>
  </defs>
</svg>