<svg width="32" height="32" viewBox="0 0 32 32" fill="none" xmlns="http://www.w3.org/2000/svg">
<path d="M29.0087 23.345C29.6997 21.9118 30.0387 20.3345 29.9977 18.744C29.9566 17.1535 29.5367 15.5958 28.7727 14.2002C28.0087 12.8046 26.9227 11.6114 25.605 10.7198C24.2873 9.82821 22.7758 9.26389 21.1962 9.07373C20.6706 7.85169 19.9065 6.74679 18.9485 5.82376C17.9906 4.90072 16.8581 4.17809 15.6174 3.69818C14.3767 3.21827 13.0527 2.99074 11.723 3.0289C10.3933 3.06705 9.08452 3.37014 7.87339 3.92041C6.66225 4.47068 5.57308 5.25706 4.66965 6.23352C3.76622 7.20997 3.0667 8.35686 2.61204 9.60704C2.15739 10.8572 1.95674 12.1855 2.02185 13.5142C2.08696 14.8429 2.41651 16.1452 2.99122 17.345L2.08247 20.4337C1.98086 20.7785 1.97407 21.1444 2.0628 21.4927C2.15154 21.8411 2.33252 22.1591 2.5867 22.4132C2.84089 22.6674 3.15888 22.8484 3.50723 22.9371C3.85558 23.0259 4.22141 23.0191 4.56622 22.9175L7.65497 22.0087C8.64676 22.4852 9.71008 22.7956 10.8025 22.9275C11.3332 24.171 12.1106 25.294 13.0876 26.2285C14.0646 27.1631 15.221 27.8898 16.4869 28.3647C17.7527 28.8397 19.1018 29.053 20.4524 28.9918C21.803 28.9306 23.1272 28.5962 24.345 28.0087L27.4337 28.9175C27.7784 29.019 28.1441 29.0257 28.4923 28.937C28.8405 28.8484 29.1583 28.6675 29.4125 28.4135C29.6666 28.1595 29.8476 27.8417 29.9365 27.4935C30.0254 27.1454 30.0188 26.7797 29.9175 26.435L29.0087 23.345ZM7.74997 19.9375C7.65441 19.9377 7.55934 19.9512 7.46747 19.9775L3.99997 21L5.02122 17.53C5.09385 17.2793 5.06559 17.0101 4.94247 16.78C4.03786 15.0882 3.77131 13.1277 4.19143 11.2558C4.61154 9.38393 5.69033 7.72535 7.23115 6.58241C8.77197 5.43948 10.6722 4.8883 12.5855 5.02935C14.4987 5.17041 16.2976 5.9943 17.6541 7.35084C19.0106 8.70739 19.8345 10.5062 19.9756 12.4195C20.1167 14.3327 19.5655 16.233 18.4225 17.7738C17.2796 19.3146 15.621 20.3934 13.7491 20.8135C11.8773 21.2336 9.91675 20.9671 8.22497 20.0625C8.07949 19.982 7.91623 19.939 7.74997 19.9375ZM26.9737 23.5287L28 27L24.53 25.9787C24.2793 25.9061 24.0101 25.9344 23.78 26.0575C21.9385 27.0408 19.7858 27.2659 17.7807 26.685C15.7757 26.104 14.0768 24.7629 13.0462 22.9475C14.4154 22.8046 15.7404 22.3802 16.9379 21.7011C18.1353 21.022 19.1796 20.1027 20.005 19.001C20.8305 17.8993 21.4193 16.6388 21.7347 15.2988C22.05 13.9587 22.085 12.568 21.8375 11.2137C23.0305 11.4949 24.1429 12.0465 25.0889 12.8259C26.0349 13.6052 26.7891 14.5915 27.2935 15.7086C27.7978 16.8258 28.0387 18.0438 27.9975 19.2688C27.9564 20.4938 27.6343 21.693 27.0562 22.7737C26.9318 23.0053 26.9035 23.2765 26.9775 23.5287H26.9737Z" fill="#42EB85"/>
</svg>
