<svg width="32" height="32" viewBox="0 0 32 32" fill="none" xmlns="http://www.w3.org/2000/svg">
<path d="M18.7012 10.7137L7.50125 21.7137C7.31421 21.8977 7.06236 22.0008 6.8 22.0008C6.53764 22.0008 6.28579 21.8977 6.09875 21.7137L1.29875 17C1.2051 16.9079 1.1305 16.7983 1.07923 16.6773C1.02795 16.5564 1.00099 16.4266 0.999883 16.2953C0.99878 16.1639 1.02356 16.0337 1.0728 15.9119C1.12204 15.7901 1.19478 15.6793 1.28687 15.5856C1.37896 15.492 1.48859 15.4174 1.60951 15.3661C1.73043 15.3148 1.86026 15.2879 1.9916 15.2867C2.12294 15.2856 2.2532 15.3104 2.37497 15.3597C2.49673 15.4089 2.6076 15.4816 2.70125 15.5737L6.8 19.5987L17.3 9.28624C17.4893 9.10025 17.7447 8.99709 18.0101 8.99943C18.1415 9.00059 18.2714 9.02762 18.3923 9.07898C18.5133 9.13033 18.6229 9.20501 18.715 9.29874C18.8071 9.39247 18.8798 9.50342 18.929 9.62526C18.9782 9.74709 19.003 9.87743 19.0018 10.0088C19.0006 10.1402 18.9736 10.2701 18.9223 10.391C18.8709 10.512 18.7962 10.6216 18.7025 10.7137H18.7012ZM30.7137 9.29874C30.6217 9.20494 30.5121 9.1302 30.3911 9.0788C30.2702 9.0274 30.1403 9.00035 30.0088 8.99918C29.8774 8.99802 29.7471 9.02278 29.6252 9.07203C29.5034 9.12129 29.3924 9.19408 29.2987 9.28624L18.7987 19.5987L16.445 17.2862C16.2557 17.1004 16.0003 16.9974 15.7351 16.9999C15.4698 17.0023 15.2164 17.1101 15.0306 17.2994C14.8448 17.4887 14.7418 17.744 14.7443 18.0093C14.7467 18.2745 14.8544 18.5279 15.0437 18.7137L18.0975 21.7137C18.2845 21.8977 18.5364 22.0008 18.7987 22.0008C19.0611 22.0008 19.313 21.8977 19.5 21.7137L30.7 10.7137C30.7939 10.6218 30.8687 10.5122 30.9202 10.3913C30.9717 10.2704 30.9989 10.1405 31.0002 10.0091C31.0015 9.87767 30.9768 9.74729 30.9277 9.6254C30.8785 9.50351 30.8058 9.39251 30.7137 9.29874Z" fill="#42EB85"/>
</svg>
