<svg width="48" height="48" viewBox="0 0 48 48" fill="none" xmlns="http://www.w3.org/2000/svg">
<path d="M42 39H38.2388C40.1455 36.6829 41.3847 33.8899 41.823 30.9213C42.2614 27.9526 41.8823 24.9207 40.7266 22.1514C39.5709 19.382 37.6823 16.9801 35.2637 15.2037C32.8452 13.4273 29.9882 12.3437 27 12.0694V6C27 5.20435 26.6839 4.44129 26.1213 3.87868C25.5587 3.31607 24.7956 3 24 3H15C14.2044 3 13.4413 3.31607 12.8787 3.87868C12.3161 4.44129 12 5.20435 12 6V25.5C12 26.2956 12.3161 27.0587 12.8787 27.6213C13.4413 28.1839 14.2044 28.5 15 28.5H24C24.7956 28.5 25.5587 28.1839 26.1213 27.6213C26.6839 27.0587 27 26.2956 27 25.5V15.0863C29.6464 15.3829 32.146 16.4555 34.1842 18.1693C36.2225 19.883 37.7084 22.1613 38.4549 24.7175C39.2015 27.2737 39.1754 29.9935 38.3799 32.5349C37.5845 35.0763 36.0551 37.3257 33.9844 39H6C5.60218 39 5.22064 39.158 4.93934 39.4393C4.65804 39.7206 4.5 40.1022 4.5 40.5C4.5 40.8978 4.65804 41.2794 4.93934 41.5607C5.22064 41.842 5.60218 42 6 42H42C42.3978 42 42.7794 41.842 43.0607 41.5607C43.342 41.2794 43.5 40.8978 43.5 40.5C43.5 40.1022 43.342 39.7206 43.0607 39.4393C42.7794 39.158 42.3978 39 42 39ZM24 25.5H15V6H24V25.5ZM13.5 34.5C13.1022 34.5 12.7206 34.342 12.4393 34.0607C12.158 33.7794 12 33.3978 12 33C12 32.6022 12.158 32.2206 12.4393 31.9393C12.7206 31.658 13.1022 31.5 13.5 31.5H25.5C25.8978 31.5 26.2794 31.658 26.5607 31.9393C26.842 32.2206 27 32.6022 27 33C27 33.3978 26.842 33.7794 26.5607 34.0607C26.2794 34.342 25.8978 34.5 25.5 34.5H13.5Z" fill="#42EB85"/>
</svg>
