<svg width="48" height="48" viewBox="0 0 48 48" fill="none" xmlns="http://www.w3.org/2000/svg">
<path d="M30 10H18C17.2044 10 16.4413 10.3161 15.8787 10.8787C15.3161 11.4413 15 12.2044 15 13V35C15 35.7956 15.3161 36.5587 15.8787 37.1213C16.4413 37.6839 17.2044 38 18 38H30C30.7956 38 31.5587 37.6839 32.1213 37.1213C32.6839 36.5587 33 35.7956 33 35V13C33 12.2044 32.6839 11.4413 32.1213 10.8787C31.5587 10.3161 30.7956 10 30 10ZM17 16H31V32H17V16ZM18 12H30C30.2652 12 30.5196 12.1054 30.7071 12.2929C30.8946 12.4804 31 12.7348 31 13V14H17V13C17 12.7348 17.1054 12.4804 17.2929 12.2929C17.4804 12.1054 17.7348 12 18 12ZM30 36H18C17.7348 36 17.4804 35.8946 17.2929 35.7071C17.1054 35.5196 17 35.2652 17 35V34H31V35C31 35.2652 30.8946 35.5196 30.7071 35.7071C30.5196 35.8946 30.2652 36 30 36Z" fill="#131413"/>
</svg>
