<svg width="31" height="31" viewBox="0 0 31 31" fill="none" xmlns="http://www.w3.org/2000/svg">
<g clip-path="url(#clip0_1647_1362)">
<path d="M20.2778 6.61533C19.1466 6.02669 17.9104 5.66697 16.6399 5.55675C15.3695 5.44654 14.0898 5.588 12.8741 5.97303L12.8036 5.99567C10.3415 6.78599 8.29414 8.52202 7.112 10.8219C5.92986 13.1217 5.70974 15.7969 6.50006 18.259L8.10463 23.2578C8.28701 23.826 8.68763 24.2985 9.21836 24.5713C9.74909 24.8441 10.3665 24.8949 10.9346 24.7125L12.3629 24.254C12.931 24.0717 13.4035 23.671 13.6763 23.1403C13.9491 22.6096 13.9999 21.9922 13.8175 21.424L12.6714 17.8535C12.489 17.2853 12.0884 16.8128 11.5577 16.54C11.0269 16.2672 10.4096 16.2164 9.8414 16.3988L7.73119 17.0762C7.39096 15.543 7.4948 13.9446 8.03054 12.4683C8.56627 10.992 9.51171 9.69901 10.756 8.74086C12.0004 7.7827 13.492 7.19908 15.0562 7.0584C16.6204 6.91772 18.1923 7.2258 19.5876 7.94655C21.2935 8.82892 22.6352 10.2826 23.3783 12.0536L21.2672 12.7312C20.699 12.9136 20.2265 13.3142 19.9537 13.845C19.6809 14.3757 19.6301 14.993 19.8125 15.5612L20.9586 19.1318C21.141 19.7 21.5417 20.1724 22.0724 20.4452C22.6031 20.718 23.2205 20.7688 23.7887 20.5865L25.931 19.8988C26.1134 20.467 26.0626 21.0843 25.7898 21.6151C25.517 22.1458 25.0445 22.5464 24.4763 22.7288L19.4775 24.3334C19.2882 24.3942 19.1307 24.5277 19.0397 24.7046C18.9488 24.8815 18.9319 25.0873 18.9927 25.2767C19.0535 25.4661 19.187 25.6236 19.3639 25.7145C19.5408 25.8054 19.7466 25.8224 19.936 25.7616L24.9348 24.157C25.8818 23.853 26.6692 23.1853 27.1239 22.3008C27.5785 21.4162 27.6632 20.3873 27.3592 19.4403L25.067 12.2992C24.6818 11.0833 24.0605 9.95543 23.2387 8.98009C22.4169 8.00474 21.4107 7.20114 20.2778 6.61533ZM10.2998 17.827C10.4892 17.7662 10.695 17.7832 10.8719 17.8741C11.0488 17.965 11.1824 18.1225 11.2432 18.3119L12.3893 21.8825C12.4501 22.0719 12.4332 22.2777 12.3422 22.4546C12.2513 22.6315 12.0938 22.765 11.9044 22.8258L10.4762 23.2843C10.2868 23.3451 10.081 23.3281 9.9041 23.2372C9.72719 23.1463 9.59365 22.9888 9.53285 22.7994L8.15751 18.5147L10.2998 17.827ZM23.3302 19.1582C23.1408 19.219 22.935 19.2021 22.7581 19.1112C22.5812 19.0202 22.4477 18.8627 22.3869 18.6733L21.2408 15.1028C21.18 14.9134 21.1969 14.7076 21.2878 14.5307C21.3788 14.3538 21.5362 14.2202 21.7256 14.1594L23.868 13.4718L25.4725 18.4706L23.3302 19.1582Z" fill="#EBF5E1"/>
</g>
<defs>
<clipPath id="clip0_1647_1362">
<rect width="24" height="24" fill="white" transform="translate(0.690186 7.52087) rotate(-17.7962)"/>
</clipPath>
</defs>
</svg>
