<svg width="29" height="29" viewBox="0 0 29 29" fill="none" xmlns="http://www.w3.org/2000/svg">
<g clip-path="url(#clip0_1647_1382)">
    color: #EBF5E1;
<path d="M15.5916 17.3559C16.8706 16.8241 17.9415 15.8902 18.6424 14.6956C19.3434 13.5009 19.6361 12.1104 19.4765 10.7346C19.3168 9.35869 18.7133 8.07225 17.7574 7.06988C16.8015 6.06751 15.5451 5.40375 14.1783 5.17901C12.8116 4.95427 11.4088 5.18078 10.1822 5.82428C8.95569 6.46778 7.97208 7.49325 7.38024 8.74555C6.78839 9.99785 6.62051 11.4088 6.90199 12.765C7.18346 14.1213 7.89899 15.3489 8.94031 16.2622C6.9272 16.5735 5.01629 17.4592 3.36376 18.8767C3.28683 18.9401 3.22331 19.0182 3.17692 19.1065C3.13052 19.1947 3.10219 19.2913 3.09356 19.3906C3.08494 19.49 3.0962 19.59 3.12669 19.6849C3.15718 19.7798 3.20629 19.8677 3.27114 19.9434C3.33599 20.0191 3.41529 20.0812 3.50439 20.1259C3.59349 20.1706 3.69061 20.1971 3.79008 20.2038C3.88954 20.2105 3.98935 20.1974 4.08366 20.1651C4.17798 20.1328 4.26491 20.082 4.33938 20.0158C6.5614 18.1047 9.3208 17.3053 12.1044 17.763C14.8879 18.2207 17.246 19.8616 18.7428 22.3842C18.8445 22.5553 19.0099 22.6791 19.2028 22.7283C19.3957 22.7775 19.6002 22.748 19.7714 22.6464C19.9426 22.5448 20.0664 22.3793 20.1156 22.1864C20.1647 21.9935 20.1353 21.789 20.0337 21.6178C18.9211 19.7456 17.3944 18.2946 15.5916 17.3559ZM8.32833 10.6815C8.48477 9.73007 8.91982 8.84642 9.57848 8.14227C10.2371 7.43812 11.0898 6.94509 12.0286 6.72554C12.9675 6.50599 13.9504 6.56977 14.853 6.90881C15.7556 7.24786 16.5374 7.84695 17.0995 8.63032C17.6616 9.41369 17.9788 10.3462 18.011 11.3098C18.0432 12.2734 17.7889 13.225 17.2803 14.0441C16.7716 14.8632 16.0315 15.5131 15.1536 15.9116C14.2756 16.3101 13.2991 16.4393 12.3477 16.2829C11.0726 16.0717 9.93336 15.3634 9.17984 14.3133C8.42632 13.2632 8.12009 11.9571 8.32833 10.6815ZM25.8278 17.651L25.4376 17.3313C25.5322 17.0718 25.5774 16.797 25.5709 16.5209L26.0429 16.343C26.1351 16.3082 26.2195 16.2556 26.2914 16.1883C26.3632 16.1209 26.4211 16.04 26.4617 15.9503C26.5023 15.8605 26.5249 15.7636 26.528 15.6652C26.5312 15.5667 26.515 15.4686 26.4802 15.3764C26.4455 15.2842 26.3929 15.1998 26.3255 15.1279C26.2581 15.0561 26.1773 14.9982 26.0875 14.9576C25.9978 14.917 25.9009 14.8944 25.8024 14.8913C25.704 14.8881 25.6058 14.9044 25.5137 14.9391L25.0406 15.1178C24.863 14.9065 24.6479 14.7297 24.4062 14.5964L24.488 14.0987C24.5203 13.9025 24.4733 13.7014 24.3573 13.5398C24.2413 13.3782 24.0659 13.2693 23.8696 13.237C23.6733 13.2047 23.4723 13.2517 23.3107 13.3677C23.1491 13.4837 23.0401 13.6591 23.0079 13.8554L22.926 14.353C22.6543 14.4019 22.394 14.5005 22.158 14.6439L21.7671 14.323C21.6909 14.2606 21.6032 14.2138 21.5089 14.1853C21.4146 14.1567 21.3156 14.1471 21.2176 14.1568C21.1195 14.1665 21.0244 14.1955 20.9375 14.242C20.8507 14.2885 20.7739 14.3516 20.7114 14.4278C20.649 14.504 20.6022 14.5918 20.5737 14.6861C20.5451 14.7804 20.5355 14.8793 20.5452 14.9774C20.5549 15.0754 20.5839 15.1706 20.6304 15.2574C20.6769 15.3442 20.74 15.4211 20.8162 15.4835L21.2064 15.8032C21.1118 16.0627 21.0666 16.3375 21.0731 16.6136L20.6011 16.7916C20.509 16.8263 20.4245 16.8789 20.3527 16.9463C20.2808 17.0136 20.2229 17.0945 20.1823 17.1843C20.1417 17.274 20.1192 17.3709 20.116 17.4694C20.1128 17.5678 20.1291 17.6659 20.1638 17.7581C20.1986 17.8503 20.2511 17.9347 20.3185 18.0066C20.3859 18.0784 20.4668 18.1363 20.5565 18.1769C20.6463 18.2176 20.7431 18.2401 20.8416 18.2433C20.9401 18.2464 21.0382 18.2302 21.1304 18.1954L21.6034 18.0167C21.781 18.2281 21.9961 18.4048 22.2379 18.5381L22.156 19.0358C22.1238 19.2321 22.1708 19.4331 22.2867 19.5947C22.4027 19.7563 22.5781 19.8653 22.7744 19.8975C22.9707 19.9298 23.1717 19.8828 23.3334 19.7668C23.495 19.6509 23.6039 19.4754 23.6362 19.2792L23.718 18.7815C23.9897 18.7326 24.2501 18.6341 24.486 18.4907L24.8769 18.8115C24.9786 18.8952 25.1007 18.9503 25.2307 18.9713C25.3936 18.9982 25.5609 18.9705 25.7065 18.8926C25.8521 18.8146 25.968 18.6908 26.036 18.5404C26.1041 18.3899 26.1206 18.2211 26.0829 18.0603C26.0453 17.8995 25.9556 17.7556 25.8278 17.651ZM22.582 16.4456C22.606 16.2992 22.673 16.1633 22.7743 16.0549C22.8756 15.9466 23.0068 15.8707 23.1512 15.837C23.2957 15.8032 23.4469 15.813 23.5857 15.8652C23.7246 15.9173 23.8449 16.0095 23.9314 16.13C24.0178 16.2505 24.0666 16.394 24.0716 16.5422C24.0765 16.6905 24.0374 16.8369 23.9592 16.9629C23.8809 17.0889 23.7671 17.1889 23.632 17.2502C23.4969 17.3115 23.3467 17.3314 23.2003 17.3073C23.004 17.2751 22.8286 17.1661 22.7127 17.0045C22.5967 16.8429 22.5497 16.6418 22.582 16.4456Z" fill="#EBF5E1"/>
</g>
<defs>
<clipPath id="clip0_1647_1382">
<rect width="24" height="24" fill="white" transform="translate(4.66907 0.578857) rotate(9.33776)"/>
</clipPath>
</defs>
</svg>
