<svg width="48" height="48" viewBox="0 0 48 48" fill="none" xmlns="http://www.w3.org/2000/svg">
<path d="M28 22H34C34.5304 22 35.0391 21.7893 35.4142 21.4142C35.7893 21.0391 36 20.5304 36 20V14C36 13.4696 35.7893 12.9609 35.4142 12.5858C35.0391 12.2107 34.5304 12 34 12H28C27.4696 12 26.9609 12.2107 26.5858 12.5858C26.2107 12.9609 26 13.4696 26 14V16H24C23.2044 16 22.4413 16.3161 21.8787 16.8787C21.3161 17.4413 21 18.2044 21 19V23H17V22C17 21.4696 16.7893 20.9609 16.4142 20.5858C16.0391 20.2107 15.5304 20 15 20H11C10.4696 20 9.96086 20.2107 9.58579 20.5858C9.21071 20.9609 9 21.4696 9 22V26C9 26.5304 9.21071 27.0391 9.58579 27.4142C9.96086 27.7893 10.4696 28 11 28H15C15.5304 28 16.0391 27.7893 16.4142 27.4142C16.7893 27.0391 17 26.5304 17 26V25H21V29C21 29.7956 21.3161 30.5587 21.8787 31.1213C22.4413 31.6839 23.2044 32 24 32H26V34C26 34.5304 26.2107 35.0391 26.5858 35.4142C26.9609 35.7893 27.4696 36 28 36H34C34.5304 36 35.0391 35.7893 35.4142 35.4142C35.7893 35.0391 36 34.5304 36 34V28C36 27.4696 35.7893 26.9609 35.4142 26.5858C35.0391 26.2107 34.5304 26 34 26H28C27.4696 26 26.9609 26.2107 26.5858 26.5858C26.2107 26.9609 26 27.4696 26 28V30H24C23.7348 30 23.4804 29.8946 23.2929 29.7071C23.1054 29.5196 23 29.2652 23 29V19C23 18.7348 23.1054 18.4804 23.2929 18.2929C23.4804 18.1054 23.7348 18 24 18H26V20C26 20.5304 26.2107 21.0391 26.5858 21.4142C26.9609 21.7893 27.4696 22 28 22ZM15 26H11V22H15V26ZM28 28H34V34H28V28ZM28 14H34V20H28V14Z" fill="#42EB85"/>
</svg>
