<svg width="48" height="48" viewBox="0 0 48 48" fill="none" xmlns="http://www.w3.org/2000/svg">
<path d="M26.7012 18.7137L15.5012 29.7137C15.3142 29.8977 15.0624 30.0008 14.8 30.0008C14.5376 30.0008 14.2858 29.8977 14.0987 29.7137L9.29875 25C9.2051 24.9079 9.1305 24.7983 9.07923 24.6773C9.02795 24.5564 9.00099 24.4266 8.99988 24.2953C8.99878 24.1639 9.02356 24.0337 9.0728 23.9119C9.12204 23.7901 9.19478 23.6793 9.28687 23.5856C9.37896 23.492 9.48859 23.4174 9.60951 23.3661C9.73043 23.3148 9.86026 23.2879 9.9916 23.2867C10.1229 23.2856 10.2532 23.3104 10.375 23.3597C10.4967 23.4089 10.6076 23.4816 10.7012 23.5737L14.8 27.5987L25.3 17.2862C25.4893 17.1003 25.7447 16.9971 26.0101 16.9994C26.1415 17.0006 26.2714 17.0276 26.3923 17.079C26.5133 17.1303 26.6229 17.205 26.715 17.2987C26.8071 17.3925 26.8798 17.5034 26.929 17.6253C26.9782 17.7471 27.003 17.8774 27.0018 18.0088C27.0006 18.1402 26.9736 18.2701 26.9223 18.391C26.8709 18.512 26.7962 18.6216 26.7025 18.7137H26.7012ZM38.7137 17.2987C38.6217 17.2049 38.5121 17.1302 38.3911 17.0788C38.2702 17.0274 38.1403 17.0003 38.0088 16.9992C37.8774 16.998 37.7471 17.0228 37.6252 17.072C37.5034 17.1213 37.3924 17.1941 37.2987 17.2862L26.7987 27.5987L24.445 25.2862C24.2557 25.1004 24.0003 24.9974 23.7351 24.9999C23.4698 25.0023 23.2164 25.1101 23.0306 25.2994C22.8448 25.4887 22.7418 25.744 22.7443 26.0093C22.7467 26.2745 22.8544 26.5279 23.0437 26.7137L26.0975 29.7137C26.2845 29.8977 26.5364 30.0008 26.7987 30.0008C27.0611 30.0008 27.313 29.8977 27.5 29.7137L38.7 18.7137C38.7939 18.6218 38.8687 18.5122 38.9202 18.3913C38.9717 18.2704 38.9989 18.1405 39.0002 18.0091C39.0015 17.8777 38.9768 17.7473 38.9277 17.6254C38.8785 17.5035 38.8058 17.3925 38.7137 17.2987Z" fill="#42EB85"/>
</svg>
