<svg width="48" height="48" viewBox="0 0 48 48"  xmlns="http://www.w3.org/2000/svg">
<path d="M41.9719 8.83502C41.9274 8.10363 41.6168 7.4138 41.0987 6.89567C40.5806 6.37755 39.8908 6.06697 39.1594 6.02252C36.8006 5.88189 30.7725 6.09752 25.77 11.0981L24.8794 12H13.9425C13.547 11.9978 13.155 12.0742 12.7894 12.2249C12.4237 12.3755 12.0916 12.5974 11.8125 12.8775L5.38123 19.3125C4.98682 19.7067 4.71006 20.2029 4.58201 20.7456C4.45396 21.2883 4.47969 21.8559 4.65631 22.3848C4.83292 22.9137 5.15344 23.3829 5.58189 23.7397C6.01034 24.0966 6.52976 24.327 7.08186 24.405L14.295 25.4119L22.5844 33.7013L23.5912 40.9181C23.6687 41.4703 23.899 41.9897 24.2562 42.4178C24.6133 42.8459 25.0832 43.1656 25.6125 43.3406C25.9208 43.4436 26.2437 43.4962 26.5687 43.4963C26.9623 43.497 27.3522 43.4199 27.7158 43.2693C28.0794 43.1186 28.4097 42.8976 28.6875 42.6188L35.1225 36.1875C35.4026 35.9084 35.6245 35.5763 35.7751 35.2106C35.9258 34.845 36.0022 34.453 36 34.0575V23.1206L36.8944 22.2263C41.8969 17.2238 42.1125 11.1956 41.9719 8.83502ZM13.9425 15H21.8794L14.4675 22.41L7.49998 21.4388L13.9425 15ZM27.8944 13.2281C29.3357 11.7779 31.0699 10.6519 32.9812 9.92537C34.8924 9.19883 36.9367 8.88847 38.9775 9.01502C39.1089 11.0569 38.8018 13.1032 38.0767 15.0165C37.3516 16.9297 36.2254 18.6656 34.7737 20.1075L24 30.8775L17.1225 24L27.8944 13.2281ZM33 34.0575L26.5631 40.5L25.59 33.5306L33 26.1206V34.0575ZM19.095 35.8388C18.2512 37.6875 15.4294 42 7.49998 42C7.10216 42 6.72063 41.842 6.43932 41.5607C6.15802 41.2794 5.99998 40.8978 5.99998 40.5C5.99998 32.5706 10.3125 29.7488 12.1612 28.9031C12.3405 28.8214 12.5341 28.7758 12.731 28.7688C12.9279 28.7619 13.1242 28.7938 13.3088 28.8628C13.4933 28.9317 13.6625 29.0363 13.8066 29.1707C13.9507 29.305 14.067 29.4664 14.1487 29.6456C14.2305 29.8249 14.2761 30.0185 14.283 30.2154C14.29 30.4123 14.2581 30.6086 14.1891 30.7932C14.1202 30.9777 14.0155 31.1469 13.8812 31.291C13.7469 31.4351 13.5855 31.5514 13.4062 31.6331C12.2006 32.1825 9.53998 33.9506 9.07123 38.9288C14.0494 38.46 15.8212 35.7994 16.3669 34.5938C16.4486 34.4145 16.5649 34.2531 16.709 34.1188C16.8531 33.9845 17.0223 33.8798 17.2068 33.8109C17.3914 33.7419 17.5877 33.71 17.7846 33.717C17.9815 33.7239 18.1751 33.7695 18.3544 33.8513C18.5336 33.933 18.695 34.0493 18.8293 34.1934C18.9637 34.3375 19.0683 34.5067 19.1372 34.6912C19.2062 34.8758 19.2381 35.0721 19.2312 35.269C19.2242 35.4659 19.1786 35.6595 19.0969 35.8388H19.095Z" fill="#EBF5E1"/>
</svg>
