<svg width="48" height="48" viewBox="0 0 48 48" fill="none" xmlns="http://www.w3.org/2000/svg">
<path d="M38.6 26.8C38.495 26.8788 38.3754 26.9361 38.2482 26.9687C38.121 27.0013 37.9886 27.0085 37.8586 26.99C37.7286 26.9714 37.6035 26.9274 37.4905 26.8605C37.3775 26.7936 37.2788 26.7051 37.2 26.6C36.5973 25.7898 35.8127 25.1325 34.9096 24.6809C34.0064 24.2293 33.0098 23.9961 32 24C31.8034 24 31.6111 23.942 31.4472 23.8333C31.2834 23.7246 31.1552 23.5699 31.0788 23.3888C31.0269 23.2657 31.0001 23.1336 31.0001 23C31.0001 22.8665 31.0269 22.7343 31.0788 22.6113C31.1552 22.4301 31.2834 22.2755 31.4472 22.1668C31.6111 22.058 31.8034 22 32 22C32.5611 22 33.1109 21.8426 33.587 21.5457C34.0632 21.2488 34.4465 20.8244 34.6935 20.3206C34.9405 19.8168 35.0412 19.2538 34.9843 18.6956C34.9273 18.1374 34.715 17.6064 34.3714 17.1628C34.0278 16.7192 33.5666 16.3809 33.0404 16.1863C32.5141 15.9917 31.9438 15.9485 31.3943 16.0617C30.8448 16.175 30.338 16.4401 29.9315 16.8269C29.5251 17.2137 29.2353 17.7067 29.095 18.25C29.0622 18.3772 29.0046 18.4967 28.9256 18.6017C28.8466 18.7067 28.7477 18.7951 28.6345 18.8618C28.5213 18.9285 28.3961 18.9723 28.266 18.9907C28.1359 19.0091 28.0035 19.0016 27.8763 18.9688C27.749 18.9359 27.6295 18.8784 27.5246 18.7994C27.4196 18.7203 27.3312 18.6214 27.2645 18.5083C27.1977 18.3951 27.1539 18.2699 27.1356 18.1398C27.1172 18.0097 27.1247 17.8772 27.1575 17.75C27.3522 16.9967 27.72 16.2991 28.2317 15.713C28.7435 15.1268 29.3849 14.6681 30.1051 14.3735C30.8252 14.0788 31.6042 13.9563 32.3801 14.0157C33.1559 14.0751 33.9072 14.3147 34.5741 14.7155C35.241 15.1164 35.8052 15.6673 36.2217 16.3245C36.6383 16.9818 36.8957 17.7272 36.9734 18.5014C37.0512 19.2756 36.9472 20.0573 36.6697 20.7842C36.3922 21.5112 35.9489 22.1633 35.375 22.6888C36.7348 23.2775 37.9168 24.2118 38.8038 25.3988C38.8825 25.5041 38.9398 25.6239 38.9722 25.7514C39.0046 25.8789 39.0115 26.0115 38.9926 26.1417C38.9737 26.2718 38.9293 26.397 38.8619 26.51C38.7945 26.6229 38.7055 26.7215 38.6 26.8ZM31.865 34.5C31.9374 34.6138 31.9859 34.7411 32.0078 34.8742C32.0297 35.0073 32.0245 35.1434 31.9924 35.2744C31.9603 35.4054 31.902 35.5286 31.8211 35.6365C31.7402 35.7444 31.6383 35.8348 31.5215 35.9023C31.4048 35.9698 31.2756 36.0129 31.1417 36.0292C31.0078 36.0455 30.872 36.0345 30.7425 35.9969C30.6129 35.9593 30.4924 35.8959 30.388 35.8105C30.2836 35.7251 30.1975 35.6195 30.135 35.5C29.5051 34.4334 28.6079 33.5494 27.532 32.9353C26.4562 32.3212 25.2388 31.9982 24 31.9982C22.7612 31.9982 21.5438 32.3212 20.468 32.9353C19.3921 33.5494 18.495 34.4334 17.865 35.5C17.8025 35.6195 17.7165 35.7251 17.6121 35.8105C17.5077 35.8959 17.3871 35.9593 17.2575 35.9969C17.128 36.0345 16.9922 36.0455 16.8583 36.0292C16.7245 36.0129 16.5952 35.9698 16.4785 35.9023C16.3617 35.8348 16.2598 35.7444 16.1789 35.6365C16.098 35.5286 16.0397 35.4054 16.0076 35.2744C15.9756 35.1434 15.9703 35.0073 15.9922 34.8742C16.0141 34.7411 16.0627 34.6138 16.135 34.5C17.1045 32.8342 18.5828 31.5234 20.3525 30.76C19.3567 29.9976 18.6248 28.9422 18.2598 27.7423C17.8947 26.5424 17.9149 25.2583 18.3174 24.0704C18.7199 22.8825 19.4846 21.8507 20.5038 21.1199C21.5231 20.389 22.7458 19.996 24 19.996C25.2542 19.996 26.4769 20.389 27.4962 21.1199C28.5155 21.8507 29.2801 22.8825 29.6826 24.0704C30.0851 25.2583 30.1053 26.5424 29.7403 27.7423C29.3752 28.9422 28.6434 29.9976 27.6475 30.76C29.4173 31.5234 30.8955 32.8342 31.865 34.5ZM24 30C24.7911 30 25.5645 29.7654 26.2223 29.3259C26.8801 28.8864 27.3928 28.2617 27.6955 27.5308C27.9983 26.7998 28.0775 25.9956 27.9232 25.2197C27.7688 24.4437 27.3878 23.731 26.8284 23.1716C26.269 22.6122 25.5563 22.2312 24.7804 22.0769C24.0044 21.9225 23.2002 22.0018 22.4693 22.3045C21.7384 22.6073 21.1137 23.1199 20.6741 23.7777C20.2346 24.4355 20 25.2089 20 26C20 27.0609 20.4214 28.0783 21.1716 28.8284C21.9217 29.5786 22.9391 30 24 30ZM17 23C17 22.7348 16.8947 22.4804 16.7071 22.2929C16.5196 22.1054 16.2652 22 16 22C15.4389 22 14.8891 21.8426 14.413 21.5457C13.9369 21.2488 13.5535 20.8244 13.3066 20.3206C13.0596 19.8168 12.9588 19.2538 13.0158 18.6956C13.0727 18.1374 13.285 17.6064 13.6286 17.1628C13.9723 16.7192 14.4334 16.3809 14.9596 16.1863C15.4859 15.9917 16.0562 15.9485 16.6057 16.0617C17.1553 16.175 17.662 16.4401 18.0685 16.8269C18.4749 17.2137 18.7647 17.7067 18.905 18.25C18.9713 18.5069 19.137 18.727 19.3655 18.8618C19.5941 18.9966 19.8668 19.0351 20.1238 18.9688C20.3807 18.9025 20.6008 18.7368 20.7355 18.5083C20.8703 18.2797 20.9088 18.0069 20.8425 17.75C20.6478 16.9967 20.28 16.2991 19.7683 15.713C19.2566 15.1268 18.6151 14.6681 17.895 14.3735C17.1748 14.0788 16.3958 13.9563 15.62 14.0157C14.8441 14.0751 14.0928 14.3147 13.4259 14.7155C12.759 15.1164 12.1948 15.6673 11.7783 16.3245C11.3618 16.9818 11.1044 17.7272 11.0266 18.5014C10.9488 19.2756 11.0528 20.0573 11.3303 20.7842C11.6078 21.5112 12.0511 22.1633 12.625 22.6888C11.2666 23.2781 10.0859 24.2123 9.20001 25.3988C9.04072 25.6109 8.97223 25.8777 9.00962 26.1404C9.04701 26.403 9.18721 26.6401 9.39939 26.7994C9.61156 26.9587 9.87832 27.0272 10.141 26.9898C10.4037 26.9524 10.6407 26.8122 10.8 26.6C11.4027 25.7898 12.1873 25.1325 13.0905 24.6809C13.9936 24.2293 14.9902 23.9961 16 24C16.2652 24 16.5196 23.8947 16.7071 23.7071C16.8947 23.5196 17 23.2652 17 23Z" fill="#131413"/>
</svg>
