<svg width="48" height="48" viewBox="0 0 48 48" fill="none" xmlns="http://www.w3.org/2000/svg">
<path d="M27 20H21C20.7348 20 20.4804 20.1054 20.2929 20.2929C20.1054 20.4804 20 20.7348 20 21V27C20 27.2652 20.1054 27.5196 20.2929 27.7071C20.4804 27.8946 20.7348 28 21 28H27C27.2652 28 27.5196 27.8946 27.7071 27.7071C27.8946 27.5196 28 27.2652 28 27V21C28 20.7348 27.8946 20.4804 27.7071 20.2929C27.5196 20.1054 27.2652 20 27 20ZM26 26H22V22H26V26ZM37 26H35V22H37C37.2652 22 37.5196 21.8946 37.7071 21.7071C37.8946 21.5196 38 21.2652 38 21C38 20.7348 37.8946 20.4804 37.7071 20.2929C37.5196 20.1054 37.2652 20 37 20H35V15C35 14.4696 34.7893 13.9609 34.4142 13.5858C34.0391 13.2107 33.5304 13 33 13H28V11C28 10.7348 27.8946 10.4804 27.7071 10.2929C27.5196 10.1054 27.2652 10 27 10C26.7348 10 26.4804 10.1054 26.2929 10.2929C26.1054 10.4804 26 10.7348 26 11V13H22V11C22 10.7348 21.8946 10.4804 21.7071 10.2929C21.5196 10.1054 21.2652 10 21 10C20.7348 10 20.4804 10.1054 20.2929 10.2929C20.1054 10.4804 20 10.7348 20 11V13H15C14.4696 13 13.9609 13.2107 13.5858 13.5858C13.2107 13.9609 13 14.4696 13 15V20H11C10.7348 20 10.4804 20.1054 10.2929 20.2929C10.1054 20.4804 10 20.7348 10 21C10 21.2652 10.1054 21.5196 10.2929 21.7071C10.4804 21.8946 10.7348 22 11 22H13V26H11C10.7348 26 10.4804 26.1054 10.2929 26.2929C10.1054 26.4804 10 26.7348 10 27C10 27.2652 10.1054 27.5196 10.2929 27.7071C10.4804 27.8946 10.7348 28 11 28H13V33C13 33.5304 13.2107 34.0391 13.5858 34.4142C13.9609 34.7893 14.4696 35 15 35H20V37C20 37.2652 20.1054 37.5196 20.2929 37.7071C20.4804 37.8946 20.7348 38 21 38C21.2652 38 21.5196 37.8946 21.7071 37.7071C21.8946 37.5196 22 37.2652 22 37V35H26V37C26 37.2652 26.1054 37.5196 26.2929 37.7071C26.4804 37.8946 26.7348 38 27 38C27.2652 38 27.5196 37.8946 27.7071 37.7071C27.8946 37.5196 28 37.2652 28 37V35H33C33.5304 35 34.0391 34.7893 34.4142 34.4142C34.7893 34.0391 35 33.5304 35 33V28H37C37.2652 28 37.5196 27.8946 37.7071 27.7071C37.8946 27.5196 38 27.2652 38 27C38 26.7348 37.8946 26.4804 37.7071 26.2929C37.5196 26.1054 37.2652 26 37 26ZM33 33H15V15H33V26.9837C33 26.9837 33 26.995 33 27C33 27.005 33 27.0113 33 27.0163V33Z" fill="#EBF5E1"/>
</svg>
