<svg xmlns="http://www.w3.org/2000/svg" width="28" height="28" viewBox="0 0 32 32" fill="none">
  <path d="M15.2926 13.7076C15.3854 13.8005 15.4957 13.8743 15.6171 13.9246C15.7385 13.9749 15.8686 14.0008 16.0001 14.0008C16.1315 14.0008 16.2616 13.9749 16.383 13.9246C16.5044 13.8743 16.6147 13.8005 16.7076 13.7076L21.7076 8.70755C21.8005 8.61468 21.8743 8.50439 21.9246 8.38299C21.9749 8.2616 22.0008 8.13147 22.0008 8.00005C22.0008 7.86864 21.9749 7.73851 21.9246 7.61711C21.8743 7.49572 21.8005 7.38543 21.7076 7.29255L16.7076 2.29255C16.6147 2.19958 16.5044 2.12582 16.383 2.07549C16.2616 2.02517 16.1315 1.99927 16.0001 1.99927C15.8686 1.99927 15.7385 2.02517 15.6171 2.07549C15.4957 2.12582 15.3854 2.19958 15.2926 2.29255L10.2926 7.29255C10.1996 7.38543 10.1258 7.49572 10.0755 7.61711C10.0252 7.73851 9.99927 7.86864 9.99927 8.00005C9.99927 8.13147 10.0252 8.2616 10.0755 8.38299C10.1258 8.50439 10.1996 8.61468 10.2926 8.70755L15.2926 13.7076ZM16.0001 4.4138L19.5863 8.00005L16.0001 11.5863L12.4138 8.00005L16.0001 4.4138ZM16.7076 18.2888C16.6147 18.1958 16.5044 18.1221 16.383 18.0717C16.2616 18.0214 16.1315 17.9955 16.0001 17.9955C15.8686 17.9955 15.7385 18.0214 15.6171 18.0717C15.4957 18.1221 15.3854 18.1958 15.2926 18.2888L10.2926 23.2888C10.1996 23.3817 10.1258 23.492 10.0755 23.6134C10.0252 23.7348 9.99927 23.8649 9.99927 23.9963C9.99927 24.1277 10.0252 24.2578 10.0755 24.3792C10.1258 24.5006 10.1996 24.6109 10.2926 24.7038L15.2926 29.7038C15.3854 29.7968 15.4957 29.8705 15.6171 29.9209C15.7385 29.9712 15.8686 29.9971 16.0001 29.9971C16.1315 29.9971 16.2616 29.9712 16.383 29.9209C16.5044 29.8705 16.6147 29.7968 16.7076 29.7038L21.7076 24.7038C21.8005 24.6109 21.8743 24.5006 21.9246 24.3792C21.9749 24.2578 22.0008 24.1277 22.0008 23.9963C22.0008 23.8649 21.9749 23.7348 21.9246 23.6134C21.8743 23.492 21.8005 23.3817 21.7076 23.2888L16.7076 18.2888ZM16.0001 27.5863L12.4138 24.0001L16.0001 20.4138L19.5863 24.0001L16.0001 27.5863ZM29.7076 15.2926L24.7076 10.2926C24.6147 10.1996 24.5044 10.1258 24.383 10.0755C24.2616 10.0252 24.1315 9.99927 24.0001 9.99927C23.8686 9.99927 23.7385 10.0252 23.6171 10.0755C23.4957 10.1258 23.3854 10.1996 23.2926 10.2926L18.2926 15.2926C18.1996 15.3854 18.1258 15.4957 18.0755 15.6171C18.0252 15.7385 17.9993 15.8686 17.9993 16.0001C17.9993 16.1315 18.0252 16.2616 18.0755 16.383C18.1258 16.5044 18.1996 16.6147 18.2926 16.7076L23.2926 21.7076C23.3854 21.8005 23.4957 21.8743 23.6171 21.9246C23.7385 21.9749 23.8686 22.0008 24.0001 22.0008C24.1315 22.0008 24.2616 21.9749 24.383 21.9246C24.5044 21.8743 24.6147 21.8005 24.7076 21.7076L29.7076 16.7076C29.8005 16.6147 29.8743 16.5044 29.9246 16.383C29.9749 16.2616 30.0008 16.1315 30.0008 16.0001C30.0008 15.8686 29.9749 15.7385 29.9246 15.6171C29.8743 15.4957 29.8005 15.3854 29.7076 15.2926ZM24.0001 19.5863L20.4138 16.0001L24.0001 12.4138L27.5863 16.0001L24.0001 19.5863ZM13.7076 15.2926L8.70755 10.2926C8.61468 10.1996 8.50439 10.1258 8.38299 10.0755C8.2616 10.0252 8.13147 9.99927 8.00005 9.99927C7.86864 9.99927 7.73851 10.0252 7.61711 10.0755C7.49572 10.1258 7.38543 10.1996 7.29255 10.2926L2.29255 15.2926C2.19958 15.3854 2.12582 15.4957 2.07549 15.6171C2.02517 15.7385 1.99927 15.8686 1.99927 16.0001C1.99927 16.1315 2.02517 16.2616 2.07549 16.383C2.12582 16.5044 2.19958 16.6147 2.29255 16.7076L7.29255 21.7076C7.38543 21.8005 7.49572 21.8743 7.61711 21.9246C7.73851 21.9749 7.86864 22.0008 8.00005 22.0008C8.13147 22.0008 8.2616 21.9749 8.38299 21.9246C8.50439 21.8743 8.61468 21.8005 8.70755 21.7076L13.7076 16.7076C13.8005 16.6147 13.8743 16.5044 13.9246 16.383C13.9749 16.2616 14.0008 16.1315 14.0008 16.0001C14.0008 15.8686 13.9749 15.7385 13.9246 15.6171C13.8743 15.4957 13.8005 15.3854 13.7076 15.2926ZM8.00005 19.5863L4.4138 16.0001L8.00005 12.4138L11.5863 16.0001L8.00005 19.5863Z" fill="#42EB85"/>
</svg>


