<svg xmlns="http://www.w3.org/2000/svg" width="28" height="28" viewBox="0 0 32 32" fill="none">
  <path d="M26 19.0001H28C28.2652 19.0001 28.5196 18.8947 28.7071 18.7072C28.8946 18.5196 29 18.2653 29 18.0001C29 17.7349 28.8946 17.4805 28.7071 17.293C28.5196 17.1054 28.2652 17.0001 28 17.0001H26V15.0001H28C28.2652 15.0001 28.5196 14.8947 28.7071 14.7072C28.8946 14.5196 29 14.2653 29 14.0001C29 13.7349 28.8946 13.4805 28.7071 13.293C28.5196 13.1054 28.2652 13.0001 28 13.0001H25.95C25.7291 10.8053 24.7866 8.74567 23.27 7.14382L25.7075 4.70757C25.8951 4.51993 26.0006 4.26543 26.0006 4.00007C26.0006 3.7347 25.8951 3.48021 25.7075 3.29257C25.5199 3.10493 25.2654 2.99951 25 2.99951C24.7346 2.99951 24.4801 3.10493 24.2925 3.29257L21.7563 5.83007C20.073 4.63934 18.0619 3.99993 16 3.99993C13.9381 3.99993 11.927 4.63934 10.2437 5.83007L7.7075 3.29257C7.51986 3.10493 7.26536 2.99951 7 2.99951C6.73464 2.99951 6.48014 3.10493 6.2925 3.29257C6.10486 3.48021 5.99944 3.7347 5.99944 4.00007C5.99944 4.26543 6.10486 4.51993 6.2925 4.70757L8.73 7.14382C7.21341 8.74567 6.27088 10.8053 6.05 13.0001H4C3.73478 13.0001 3.48043 13.1054 3.29289 13.293C3.10536 13.4805 3 13.7349 3 14.0001C3 14.2653 3.10536 14.5196 3.29289 14.7072C3.48043 14.8947 3.73478 15.0001 4 15.0001H6V17.0001H4C3.73478 17.0001 3.48043 17.1054 3.29289 17.293C3.10536 17.4805 3 17.7349 3 18.0001C3 18.2653 3.10536 18.5196 3.29289 18.7072C3.48043 18.8947 3.73478 19.0001 4 19.0001H6V20.0001C6 20.3376 6.0175 20.6713 6.05 21.0001H4C3.73478 21.0001 3.48043 21.1054 3.29289 21.293C3.10536 21.4805 3 21.7349 3 22.0001C3 22.2653 3.10536 22.5196 3.29289 22.7072C3.48043 22.8947 3.73478 23.0001 4 23.0001H6.46C7.09808 25.0305 8.36733 26.8044 10.0831 28.0637C11.7989 29.323 13.8717 30.002 16 30.002C18.1283 30.002 20.2011 29.323 21.9169 28.0637C23.6327 26.8044 24.9019 25.0305 25.54 23.0001H28C28.2652 23.0001 28.5196 22.8947 28.7071 22.7072C28.8946 22.5196 29 22.2653 29 22.0001C29 21.7349 28.8946 21.4805 28.7071 21.293C28.5196 21.1054 28.2652 21.0001 28 21.0001H25.95C25.9825 20.6713 26 20.3376 26 20.0001V19.0001ZM16 6.00007C17.9476 6.00249 19.8276 6.71455 21.2882 8.003C22.7487 9.29144 23.6897 11.068 23.935 13.0001H8.06C8.30542 11.0671 9.24712 9.2899 10.7087 8.00134C12.1703 6.71279 14.0515 6.00128 16 6.00007ZM17 27.9351V18.0001C17 17.7349 16.8946 17.4805 16.7071 17.293C16.5196 17.1054 16.2652 17.0001 16 17.0001C15.7348 17.0001 15.4804 17.1054 15.2929 17.293C15.1054 17.4805 15 17.7349 15 18.0001V27.9351C13.0679 27.6898 11.2914 26.7488 10.0029 25.2882C8.71449 23.8277 8.00242 21.9477 8 20.0001V15.0001H24V20.0001C23.9976 21.9477 23.2855 23.8277 21.9971 25.2882C20.7086 26.7488 18.9321 27.6898 17 27.9351Z" fill="#42EB85"/>
</svg>